<?xml version="1.0" standalone="no"?>
<!DOCTYPE svg PUBLIC "-//W3C//DTD SVG 20010904//EN"
 "http://www.w3.org/TR/2001/REC-SVG-20010904/DTD/svg10.dtd">
<svg version="1.0" xmlns="http://www.w3.org/2000/svg"
 width="512.000000pt" height="512.000000pt" viewBox="0 0 512.000000 512.000000"
 preserveAspectRatio="xMidYMid meet">
<metadata>
Created by potrace 1.14, written by Peter Selinger 2001-2017
</metadata>
<g transform="translate(0.000000,512.000000) scale(0.100000,-0.100000)"
fill="#000000" stroke="none">
<path d="M0 2560 l0 -2560 2558 2 2557 3 3 2558 2 2557 -2560 0 -2560 0 0
-2560z m3345 1390 l0 -105 -785 0 -785 0 -3 94 c-1 52 0 100 2 108 5 11 144
13 788 11 l783 -3 0 -105z m-615 -421 c212 -31 407 -159 493 -325 59 -115 85
-245 51 -258 -22 -9 -197 -7 -210 2 -6 4 -15 27 -19 52 -18 115 -96 221 -199
269 -87 41 -162 54 -311 54 -207 -1 -324 -38 -404 -129 -52 -60 -76 -135 -67
-212 21 -182 115 -236 540 -312 195 -35 295 -59 398 -96 202 -72 307 -191 331
-375 29 -220 -84 -415 -304 -523 -156 -77 -221 -90 -449 -90 -170 -1 -207 2
-285 22 -179 45 -262 88 -366 191 -50 50 -85 96 -103 134 -31 66 -59 185 -54
231 l3 31 117 3 117 3 6 -48 c24 -173 94 -259 251 -312 90 -30 175 -41 319
-41 201 0 325 35 415 116 62 56 90 121 90 213 0 214 -90 274 -530 351 -269 47
-377 78 -502 142 -97 50 -176 132 -209 215 -33 86 -37 212 -11 300 58 190 226
330 460 384 106 25 292 28 432 8z m615 -2359 l0 -105 -785 0 -785 0 -3 94 c-1
52 0 100 2 108 5 11 144 13 788 11 l783 -3 0 -105z"/>
</g>
</svg>
